<mxfile host="app.diagrams.net" agent="Mozilla/5.0 (X11; Linux x86_64) AppleWebKit/537.36 (KHTML, like Gecko) Chrome/131.0.0.0 Safari/537.36" version="25.0.1">
  <diagram id="C5RBs43oDa-KdzZeNtuy" name="Page-1">
    <mxGraphModel dx="1715" dy="1777" grid="1" gridSize="10" guides="1" tooltips="1" connect="1" arrows="1" fold="1" page="1" pageScale="1" pageWidth="827" pageHeight="1169" math="0" shadow="0">
      <root>
        <mxCell id="WIyWlLk6GJQsqaUBKTNV-0" />
        <mxCell id="WIyWlLk6GJQsqaUBKTNV-1" parent="WIyWlLk6GJQsqaUBKTNV-0" />
        <mxCell id="Wd-yBZaeaF0LNHIdaz3Q-1" value="Orgchart" style="swimlane;startSize=20;horizontal=1;containerType=tree;newEdgeStyle={&quot;edgeStyle&quot;:&quot;elbowEdgeStyle&quot;,&quot;startArrow&quot;:&quot;none&quot;,&quot;endArrow&quot;:&quot;none&quot;};" vertex="1" parent="WIyWlLk6GJQsqaUBKTNV-1">
          <mxGeometry x="-827" y="-1169" width="767" height="639" as="geometry" />
        </mxCell>
        <UserObject label="SuperAdmin" treeRoot="1" id="Wd-yBZaeaF0LNHIdaz3Q-4">
          <mxCell style="whiteSpace=wrap;html=1;align=center;treeFolding=1;treeMoving=1;newEdgeStyle={&quot;edgeStyle&quot;:&quot;elbowEdgeStyle&quot;,&quot;startArrow&quot;:&quot;none&quot;,&quot;endArrow&quot;:&quot;none&quot;};" vertex="1" parent="Wd-yBZaeaF0LNHIdaz3Q-1">
            <mxGeometry x="140" y="20" width="120" height="60" as="geometry" />
          </mxCell>
        </UserObject>
        <UserObject label="StoreAdmin" treeRoot="1" id="Wd-yBZaeaF0LNHIdaz3Q-9">
          <mxCell style="whiteSpace=wrap;html=1;align=center;treeFolding=1;treeMoving=1;newEdgeStyle={&quot;edgeStyle&quot;:&quot;elbowEdgeStyle&quot;,&quot;startArrow&quot;:&quot;none&quot;,&quot;endArrow&quot;:&quot;none&quot;};" vertex="1" parent="Wd-yBZaeaF0LNHIdaz3Q-1">
            <mxGeometry x="140" y="119" width="120" height="60" as="geometry" />
          </mxCell>
        </UserObject>
        <mxCell id="Wd-yBZaeaF0LNHIdaz3Q-11" style="edgeStyle=elbowEdgeStyle;rounded=0;orthogonalLoop=1;jettySize=auto;html=1;startArrow=none;endArrow=none;entryX=0.5;entryY=1;entryDx=0;entryDy=0;" edge="1" parent="Wd-yBZaeaF0LNHIdaz3Q-1" source="Wd-yBZaeaF0LNHIdaz3Q-10" target="Wd-yBZaeaF0LNHIdaz3Q-9">
          <mxGeometry relative="1" as="geometry" />
        </mxCell>
        <mxCell id="Wd-yBZaeaF0LNHIdaz3Q-18" style="edgeStyle=entityRelationEdgeStyle;rounded=0;orthogonalLoop=1;jettySize=auto;html=1;startArrow=none;endArrow=none;exitX=0.25;exitY=1;exitDx=0;exitDy=0;entryX=0.5;entryY=0;entryDx=0;entryDy=0;elbow=vertical;" edge="1" parent="Wd-yBZaeaF0LNHIdaz3Q-1" source="Wd-yBZaeaF0LNHIdaz3Q-10" target="Wd-yBZaeaF0LNHIdaz3Q-17">
          <mxGeometry relative="1" as="geometry">
            <Array as="points">
              <mxPoint x="197" y="309" />
            </Array>
          </mxGeometry>
        </mxCell>
        <mxCell id="Wd-yBZaeaF0LNHIdaz3Q-22" value="Has Many&lt;div&gt;&lt;br&gt;&lt;/div&gt;" style="edgeLabel;html=1;align=center;verticalAlign=middle;resizable=0;points=[];" vertex="1" connectable="0" parent="Wd-yBZaeaF0LNHIdaz3Q-18">
          <mxGeometry x="-0.102" y="1" relative="1" as="geometry">
            <mxPoint as="offset" />
          </mxGeometry>
        </mxCell>
        <UserObject label="Store&lt;div&gt;&lt;br&gt;&lt;/div&gt;" treeRoot="1" id="Wd-yBZaeaF0LNHIdaz3Q-10">
          <mxCell style="whiteSpace=wrap;html=1;align=center;treeFolding=1;treeMoving=1;newEdgeStyle={&quot;edgeStyle&quot;:&quot;elbowEdgeStyle&quot;,&quot;startArrow&quot;:&quot;none&quot;,&quot;endArrow&quot;:&quot;none&quot;};" vertex="1" parent="Wd-yBZaeaF0LNHIdaz3Q-1">
            <mxGeometry x="140" y="239" width="120" height="60" as="geometry" />
          </mxCell>
        </UserObject>
        <mxCell id="Wd-yBZaeaF0LNHIdaz3Q-26" style="edgeStyle=elbowEdgeStyle;rounded=0;orthogonalLoop=1;jettySize=auto;html=1;startArrow=none;endArrow=none;entryX=0;entryY=0.5;entryDx=0;entryDy=0;elbow=horizontal;" edge="1" parent="Wd-yBZaeaF0LNHIdaz3Q-1" source="Wd-yBZaeaF0LNHIdaz3Q-17" target="Wd-yBZaeaF0LNHIdaz3Q-23">
          <mxGeometry relative="1" as="geometry">
            <Array as="points">
              <mxPoint x="107" y="459" />
            </Array>
          </mxGeometry>
        </mxCell>
        <mxCell id="Wd-yBZaeaF0LNHIdaz3Q-31" value="Through" style="edgeLabel;html=1;align=center;verticalAlign=middle;resizable=0;points=[];" vertex="1" connectable="0" parent="Wd-yBZaeaF0LNHIdaz3Q-26">
          <mxGeometry x="-0.4" relative="1" as="geometry">
            <mxPoint as="offset" />
          </mxGeometry>
        </mxCell>
        <UserObject label="&lt;div&gt;Products&lt;/div&gt;" treeRoot="1" id="Wd-yBZaeaF0LNHIdaz3Q-17">
          <mxCell style="whiteSpace=wrap;html=1;align=center;treeFolding=1;treeMoving=1;newEdgeStyle={&quot;edgeStyle&quot;:&quot;elbowEdgeStyle&quot;,&quot;startArrow&quot;:&quot;none&quot;,&quot;endArrow&quot;:&quot;none&quot;};" vertex="1" parent="Wd-yBZaeaF0LNHIdaz3Q-1">
            <mxGeometry x="67" y="369" width="120" height="60" as="geometry" />
          </mxCell>
        </UserObject>
        <mxCell id="Wd-yBZaeaF0LNHIdaz3Q-20" style="edgeStyle=entityRelationEdgeStyle;rounded=0;orthogonalLoop=1;jettySize=auto;html=1;startArrow=none;endArrow=none;entryX=0.75;entryY=1;entryDx=0;entryDy=0;" edge="1" parent="Wd-yBZaeaF0LNHIdaz3Q-1" source="Wd-yBZaeaF0LNHIdaz3Q-19" target="Wd-yBZaeaF0LNHIdaz3Q-10">
          <mxGeometry relative="1" as="geometry">
            <mxPoint x="307" y="379" as="sourcePoint" />
            <Array as="points">
              <mxPoint x="307" y="329" />
              <mxPoint x="317" y="359" />
              <mxPoint x="307" y="329" />
            </Array>
          </mxGeometry>
        </mxCell>
        <mxCell id="Wd-yBZaeaF0LNHIdaz3Q-21" value="Has Many" style="edgeLabel;html=1;align=center;verticalAlign=middle;resizable=0;points=[];" vertex="1" connectable="0" parent="Wd-yBZaeaF0LNHIdaz3Q-20">
          <mxGeometry x="-0.0049" y="3" relative="1" as="geometry">
            <mxPoint as="offset" />
          </mxGeometry>
        </mxCell>
        <mxCell id="Wd-yBZaeaF0LNHIdaz3Q-40" style="edgeStyle=entityRelationEdgeStyle;rounded=0;orthogonalLoop=1;jettySize=auto;html=1;startArrow=none;endArrow=none;elbow=vertical;entryX=0.5;entryY=0;entryDx=0;entryDy=0;exitX=1;exitY=1;exitDx=0;exitDy=0;" edge="1" parent="Wd-yBZaeaF0LNHIdaz3Q-1" source="Wd-yBZaeaF0LNHIdaz3Q-19" target="Wd-yBZaeaF0LNHIdaz3Q-44">
          <mxGeometry relative="1" as="geometry">
            <mxPoint x="507" y="409" as="targetPoint" />
          </mxGeometry>
        </mxCell>
        <mxCell id="Wd-yBZaeaF0LNHIdaz3Q-45" value="Has Many" style="edgeLabel;html=1;align=center;verticalAlign=middle;resizable=0;points=[];" vertex="1" connectable="0" parent="Wd-yBZaeaF0LNHIdaz3Q-40">
          <mxGeometry x="0.2667" y="4" relative="1" as="geometry">
            <mxPoint x="-20" as="offset" />
          </mxGeometry>
        </mxCell>
        <mxCell id="Wd-yBZaeaF0LNHIdaz3Q-54" style="edgeStyle=entityRelationEdgeStyle;rounded=0;orthogonalLoop=1;jettySize=auto;html=1;startArrow=none;endArrow=none;entryX=0;entryY=0.5;entryDx=0;entryDy=0;" edge="1" parent="Wd-yBZaeaF0LNHIdaz3Q-1" source="Wd-yBZaeaF0LNHIdaz3Q-19" target="Wd-yBZaeaF0LNHIdaz3Q-32">
          <mxGeometry relative="1" as="geometry" />
        </mxCell>
        <mxCell id="Wd-yBZaeaF0LNHIdaz3Q-55" value="Has Many" style="edgeLabel;html=1;align=center;verticalAlign=middle;resizable=0;points=[];" vertex="1" connectable="0" parent="Wd-yBZaeaF0LNHIdaz3Q-54">
          <mxGeometry x="0.2889" relative="1" as="geometry">
            <mxPoint x="-18" y="3" as="offset" />
          </mxGeometry>
        </mxCell>
        <UserObject label="&lt;div&gt;Orders&lt;/div&gt;" treeRoot="1" id="Wd-yBZaeaF0LNHIdaz3Q-19">
          <mxCell style="whiteSpace=wrap;html=1;align=center;treeFolding=1;treeMoving=1;newEdgeStyle={&quot;edgeStyle&quot;:&quot;elbowEdgeStyle&quot;,&quot;startArrow&quot;:&quot;none&quot;,&quot;endArrow&quot;:&quot;none&quot;};" vertex="1" parent="Wd-yBZaeaF0LNHIdaz3Q-1">
            <mxGeometry x="247" y="369" width="120" height="60" as="geometry" />
          </mxCell>
        </UserObject>
        <mxCell id="Wd-yBZaeaF0LNHIdaz3Q-29" style="edgeStyle=elbowEdgeStyle;rounded=0;orthogonalLoop=1;jettySize=auto;html=1;startArrow=none;endArrow=none;entryX=0.75;entryY=1;entryDx=0;entryDy=0;elbow=horizontal;" edge="1" parent="Wd-yBZaeaF0LNHIdaz3Q-1" source="Wd-yBZaeaF0LNHIdaz3Q-23" target="Wd-yBZaeaF0LNHIdaz3Q-19">
          <mxGeometry relative="1" as="geometry" />
        </mxCell>
        <mxCell id="Wd-yBZaeaF0LNHIdaz3Q-30" value="Has Many&amp;nbsp;" style="edgeLabel;html=1;align=center;verticalAlign=middle;resizable=0;points=[];" vertex="1" connectable="0" parent="Wd-yBZaeaF0LNHIdaz3Q-29">
          <mxGeometry x="-0.5" y="-4" relative="1" as="geometry">
            <mxPoint as="offset" />
          </mxGeometry>
        </mxCell>
        <UserObject label="&lt;div&gt;OrderItems&lt;/div&gt;" treeRoot="1" id="Wd-yBZaeaF0LNHIdaz3Q-23">
          <mxCell style="whiteSpace=wrap;html=1;align=center;treeFolding=1;treeMoving=1;newEdgeStyle={&quot;edgeStyle&quot;:&quot;elbowEdgeStyle&quot;,&quot;startArrow&quot;:&quot;none&quot;,&quot;endArrow&quot;:&quot;none&quot;};" vertex="1" parent="Wd-yBZaeaF0LNHIdaz3Q-1">
            <mxGeometry x="157" y="459" width="120" height="60" as="geometry" />
          </mxCell>
        </UserObject>
        <UserObject label="&lt;div&gt;User&lt;/div&gt;" treeRoot="1" id="Wd-yBZaeaF0LNHIdaz3Q-32">
          <mxCell style="whiteSpace=wrap;html=1;align=center;treeFolding=1;treeMoving=1;newEdgeStyle={&quot;edgeStyle&quot;:&quot;elbowEdgeStyle&quot;,&quot;startArrow&quot;:&quot;none&quot;,&quot;endArrow&quot;:&quot;none&quot;};" vertex="1" parent="Wd-yBZaeaF0LNHIdaz3Q-1">
            <mxGeometry x="507" y="359" width="120" height="60" as="geometry" />
          </mxCell>
        </UserObject>
        <mxCell id="Wd-yBZaeaF0LNHIdaz3Q-36" style="edgeStyle=elbowEdgeStyle;rounded=0;orthogonalLoop=1;jettySize=auto;html=1;startArrow=none;endArrow=none;entryX=1;entryY=0.5;entryDx=0;entryDy=0;" edge="1" parent="Wd-yBZaeaF0LNHIdaz3Q-1" source="Wd-yBZaeaF0LNHIdaz3Q-33" target="Wd-yBZaeaF0LNHIdaz3Q-10">
          <mxGeometry relative="1" as="geometry" />
        </mxCell>
        <mxCell id="Wd-yBZaeaF0LNHIdaz3Q-38" value="Has Many" style="edgeLabel;html=1;align=center;verticalAlign=middle;resizable=0;points=[];" vertex="1" connectable="0" parent="Wd-yBZaeaF0LNHIdaz3Q-36">
          <mxGeometry x="0.1496" y="-1" relative="1" as="geometry">
            <mxPoint as="offset" />
          </mxGeometry>
        </mxCell>
        <UserObject label="&lt;div&gt;Customer&lt;/div&gt;" treeRoot="1" id="Wd-yBZaeaF0LNHIdaz3Q-33">
          <mxCell style="whiteSpace=wrap;html=1;align=center;treeFolding=1;treeMoving=1;newEdgeStyle={&quot;edgeStyle&quot;:&quot;elbowEdgeStyle&quot;,&quot;startArrow&quot;:&quot;none&quot;,&quot;endArrow&quot;:&quot;none&quot;};" vertex="1" parent="Wd-yBZaeaF0LNHIdaz3Q-1">
            <mxGeometry x="387" y="239" width="120" height="60" as="geometry" />
          </mxCell>
        </UserObject>
        <UserObject label="&lt;div&gt;OrderInvoice&lt;/div&gt;" treeRoot="1" id="Wd-yBZaeaF0LNHIdaz3Q-44">
          <mxCell style="whiteSpace=wrap;html=1;align=center;treeFolding=1;treeMoving=1;newEdgeStyle={&quot;edgeStyle&quot;:&quot;elbowEdgeStyle&quot;,&quot;startArrow&quot;:&quot;none&quot;,&quot;endArrow&quot;:&quot;none&quot;};" vertex="1" parent="Wd-yBZaeaF0LNHIdaz3Q-1">
            <mxGeometry x="377" y="489" width="120" height="60" as="geometry" />
          </mxCell>
        </UserObject>
        <mxCell id="Wd-yBZaeaF0LNHIdaz3Q-51" style="edgeStyle=entityRelationEdgeStyle;rounded=0;orthogonalLoop=1;jettySize=auto;html=1;startArrow=none;endArrow=none;exitX=0.5;exitY=0;exitDx=0;exitDy=0;entryX=1;entryY=0.5;entryDx=0;entryDy=0;" edge="1" parent="Wd-yBZaeaF0LNHIdaz3Q-1" source="Wd-yBZaeaF0LNHIdaz3Q-32" target="Wd-yBZaeaF0LNHIdaz3Q-33">
          <mxGeometry relative="1" as="geometry" />
        </mxCell>
        <mxCell id="Wd-yBZaeaF0LNHIdaz3Q-52" value="Through" style="edgeLabel;html=1;align=center;verticalAlign=middle;resizable=0;points=[];" vertex="1" connectable="0" parent="Wd-yBZaeaF0LNHIdaz3Q-51">
          <mxGeometry x="0.1016" y="1" relative="1" as="geometry">
            <mxPoint as="offset" />
          </mxGeometry>
        </mxCell>
        <mxCell id="Wd-yBZaeaF0LNHIdaz3Q-53" style="edgeStyle=elbowEdgeStyle;rounded=0;orthogonalLoop=1;jettySize=auto;html=1;startArrow=none;endArrow=none;entryX=0.5;entryY=0;entryDx=0;entryDy=0;" edge="1" parent="Wd-yBZaeaF0LNHIdaz3Q-1" source="Wd-yBZaeaF0LNHIdaz3Q-19" target="Wd-yBZaeaF0LNHIdaz3Q-19">
          <mxGeometry relative="1" as="geometry" />
        </mxCell>
      </root>
    </mxGraphModel>
  </diagram>
</mxfile>
